<?xml version="1.0" encoding="UTF-8" standalone="no"?>
<!DOCTYPE svg PUBLIC "-//W3C//DTD SVG 20010904//EN"
              "http://www.w3.org/TR/2001/REC-SVG-20010904/DTD/svg10.dtd">

<svg xmlns="http://www.w3.org/2000/svg"
     width="2.04167in" height="3.58333in"
     viewBox="0 0 147 258">
  <path id="Selection #3"
        fill="none" stroke="black" stroke-width="1"
        d="M 23.73,23.80
           C 33.43,15.14 43.23,12.86 56.00,13.00
             56.00,13.00 67.00,13.92 67.00,13.92
             67.00,13.92 79.00,13.00 79.00,13.00
             82.83,12.98 89.61,13.55 92.69,11.15
             95.23,9.16 94.92,6.49 96.31,4.22
             98.27,1.04 102.54,0.31 106.00,0.09
             118.89,-0.70 133.78,5.24 134.00,20.00
             134.03,22.24 134.19,25.73 132.98,27.66
             131.72,29.67 120.78,34.06 118.00,35.00
             120.34,39.22 122.61,43.04 126.18,46.39
             129.65,49.63 135.73,53.59 138.35,57.09
             140.13,59.46 141.04,62.25 142.05,65.00
             147.14,78.88 145.84,80.97 146.00,95.00
             146.00,95.00 147.00,108.00 147.00,108.00
             147.04,111.56 147.58,119.80 145.15,122.40
             143.55,124.11 140.26,124.12 138.00,124.84
             134.35,125.99 129.99,128.16 127.49,131.09
             127.49,131.09 114.79,148.01 114.79,148.01
             114.79,148.01 105.77,167.72 105.77,167.72
             105.77,167.72 101.98,173.04 101.98,173.04
             99.03,177.82 94.72,189.42 95.10,195.00
             95.10,195.00 99.00,212.00 99.00,212.00
             99.00,212.00 103.59,228.98 103.59,228.98
             104.22,230.58 104.91,231.45 106.15,232.62
             111.20,237.41 118.00,238.65 124.00,241.38
             124.00,241.38 137.96,248.21 137.96,248.21
             137.96,248.21 145.00,253.00 145.00,253.00
             145.00,253.00 145.00,258.00 145.00,258.00
             143.02,257.97 140.90,258.08 139.00,257.41
             139.00,257.41 119.00,246.51 119.00,246.51
             112.90,243.66 105.35,242.98 100.57,237.62
             97.97,234.72 98.31,232.43 97.48,229.00
             97.48,229.00 93.50,215.00 93.50,215.00
             93.50,215.00 87.71,197.00 87.71,197.00
             87.59,193.86 89.55,190.96 90.37,188.00
             90.37,188.00 91.69,179.17 91.69,179.17
             91.69,179.17 97.21,167.17 97.21,167.17
             97.21,167.17 101.30,160.96 101.30,160.96
             105.14,153.45 107.32,145.29 112.44,138.42
             114.31,135.92 123.29,124.21 125.05,123.07
             132.14,118.51 138.24,120.11 140.89,115.85
             142.88,112.04 141.01,102.91 140.89,98.00
             140.89,98.00 140.89,88.00 140.89,88.00
             140.91,80.73 136.74,66.39 131.81,61.09
             125.09,53.85 114.60,48.71 112.40,38.00
             111.05,31.49 115.57,28.35 121.00,26.28
             124.38,25.00 128.99,23.71 127.71,18.99
             125.80,11.94 115.04,5.55 108.00,6.06
             96.95,6.87 104.79,15.94 93.00,18.28
             87.93,19.57 85.60,18.08 81.00,18.28
             81.00,18.28 73.00,18.95 73.00,18.95
             73.00,18.95 63.00,18.95 63.00,18.95
             54.93,18.90 49.27,17.84 41.00,20.99
             31.82,24.48 23.58,35.19 20.68,36.43
             19.22,37.05 17.55,36.95 16.00,37.00
             16.45,29.17 18.28,28.66 23.73,23.80 Z" />
</svg>
