<?xml version="1.0" encoding="UTF-8" standalone="no"?>
<!DOCTYPE svg PUBLIC "-//W3C//DTD SVG 20010904//EN"
              "http://www.w3.org/TR/2001/REC-SVG-20010904/DTD/svg10.dtd">

<svg xmlns="http://www.w3.org/2000/svg"
     width="7.25in" height="6.06944in"
     viewBox="0 0 522 437">
  <path id="Selection #1"
        fill="none" stroke="black" stroke-width="1"
        d="M 252.00,135.00
           C 250.26,142.14 251.33,144.09 252.58,151.00
             253.71,157.27 255.16,165.72 258.92,170.95
             261.38,174.38 264.15,175.41 267.26,178.01
             271.29,181.39 275.34,184.78 280.00,187.30
             280.00,187.30 299.00,194.68 299.00,194.68
             304.19,196.64 306.29,198.04 311.00,200.52
             321.39,205.99 325.45,207.13 333.79,216.30
             339.97,223.10 345.95,233.73 346.00,243.00
             346.04,250.51 344.92,269.78 347.70,275.71
             353.34,287.79 369.52,288.46 379.00,299.00
             373.88,297.30 370.67,294.44 366.00,291.86
             358.77,287.88 350.59,285.97 346.64,277.57
             343.99,271.96 345.01,253.14 344.80,246.00
             345.00,243.85 345.07,241.06 344.80,239.00
             343.77,235.22 337.50,224.32 335.07,221.00
             327.64,210.84 320.73,207.47 310.00,202.04
             310.00,202.04 298.00,196.06 298.00,196.06
             298.00,196.06 278.00,188.30 278.00,188.30
             273.64,185.94 270.21,182.85 266.42,179.75
             263.62,177.44 260.09,175.75 257.92,172.87
             251.75,164.72 250.00,145.12 250.00,135.00
             250.00,135.00 252.00,135.00 252.00,135.00 Z" />
</svg>
