<?xml version="1.0" encoding="UTF-8" standalone="no"?>
<!DOCTYPE svg PUBLIC "-//W3C//DTD SVG 20010904//EN"
              "http://www.w3.org/TR/2001/REC-SVG-20010904/DTD/svg10.dtd">

<svg xmlns="http://www.w3.org/2000/svg"
     width="2.04167in" height="3.58333in"
     viewBox="0 0 147 258">
  <path id="Selection #2"
        fill="none" stroke="black" stroke-width="1"
        d="M 99.30,74.99
           C 102.92,77.73 102.98,90.61 103.00,95.00
             103.00,95.00 103.91,106.00 103.91,106.00
             104.08,109.01 102.11,121.28 101.12,124.00
             99.42,128.69 97.50,131.78 96.46,137.00
             93.88,149.96 96.01,157.11 94.82,167.00
             94.82,167.00 93.00,175.00 93.00,175.00
             96.50,176.25 95.27,188.51 95.09,192.00
             94.70,199.56 99.53,213.51 101.91,221.00
             101.91,221.00 103.59,228.98 103.59,228.98
             105.26,233.24 111.00,236.21 115.00,237.96
             115.00,237.96 136.99,247.64 136.99,247.64
             136.99,247.64 145.00,253.00 145.00,253.00
             145.00,253.00 145.00,258.00 145.00,258.00
             136.64,257.89 138.55,256.90 132.00,253.06
             132.00,253.06 125.00,249.58 125.00,249.58
             125.00,249.58 118.00,246.05 118.00,246.05
             112.14,243.57 105.10,242.70 100.57,237.62
             98.60,235.42 94.50,219.72 93.72,216.00
             93.72,216.00 88.22,199.00 88.22,199.00
             88.22,199.00 89.00,187.00 89.00,187.00
             89.00,187.00 88.00,165.00 88.00,165.00
             88.00,165.00 90.00,166.00 90.00,166.00
             90.00,154.76 89.27,143.09 91.32,132.00
             91.32,132.00 96.51,117.00 96.51,117.00
             96.51,117.00 97.96,101.00 97.96,101.00
             98.63,85.64 94.50,83.13 94.00,74.00
             95.72,74.06 97.85,73.90 99.30,74.99 Z
           M 96.00,171.00
           C 96.00,171.00 95.00,172.00 95.00,172.00
             95.00,172.00 95.00,171.00 95.00,171.00
             95.00,171.00 96.00,171.00 96.00,171.00 Z" />
</svg>
