<?xml version="1.0" encoding="UTF-8" standalone="no"?>
<!DOCTYPE svg PUBLIC "-//W3C//DTD SVG 20010904//EN"
              "http://www.w3.org/TR/2001/REC-SVG-20010904/DTD/svg10.dtd">

<svg xmlns="http://www.w3.org/2000/svg"
     width="2.04167in" height="3.58333in"
     viewBox="0 0 147 258">
  <path id="Selection #1"
        fill="none" stroke="black" stroke-width="1"
        d="M 132.00,253.06
           C 132.00,253.06 125.00,249.58 125.00,249.58
             125.00,249.58 118.00,246.05 118.00,246.05
             112.14,243.57 105.10,242.70 100.57,237.62
             97.97,234.72 98.31,232.43 97.48,229.00
             97.48,229.00 93.50,215.00 93.50,215.00
             90.22,200.78 85.80,196.94 84.78,193.00
             83.83,189.30 86.27,185.28 83.83,172.00
             81.89,161.45 77.14,150.88 77.00,140.00
             77.00,140.00 77.00,127.00 77.00,127.00
             76.98,117.96 75.88,117.26 68.00,112.72
             68.00,112.72 61.28,108.89 61.28,108.89
             58.10,107.61 56.18,109.15 53.00,109.67
             47.83,110.52 37.34,109.34 34.25,104.67
             27.32,94.23 24.77,71.60 29.97,60.00
             31.19,57.27 32.89,55.24 34.87,53.04
             41.84,45.33 48.17,47.81 57.00,50.26
             59.29,50.89 63.74,51.57 65.43,53.09
             67.10,54.59 67.00,56.94 66.99,59.00
             66.98,67.86 60.98,70.56 53.00,71.00
             53.00,71.00 53.00,65.00 53.00,65.00
             58.11,63.48 59.20,62.52 62.00,58.00
             58.84,57.18 47.62,53.73 45.09,54.55
             42.90,55.26 40.49,58.26 39.02,60.00
             32.69,67.48 32.07,73.73 33.70,83.00
             34.36,86.78 34.18,88.17 35.71,92.00
             35.71,92.00 38.52,97.96 38.52,97.96
             44.78,108.80 53.89,100.44 63.00,102.27
             66.06,102.89 79.41,110.86 80.98,113.38
             82.00,115.02 83.04,127.61 82.91,130.00
             82.91,130.00 82.21,138.00 82.21,138.00
             82.21,138.00 87.26,162.96 87.26,162.96
             87.26,162.96 89.77,169.17 89.77,169.17
             89.77,169.17 92.62,184.00 92.62,184.00
             92.62,184.00 97.00,204.00 97.00,204.00
             97.00,204.00 102.22,222.00 102.22,222.00
             103.24,225.68 102.59,228.69 105.31,231.79
             109.84,236.96 118.10,238.69 124.00,241.38
             124.00,241.38 137.96,248.21 137.96,248.21
             137.96,248.21 145.00,253.00 145.00,253.00
             145.00,253.00 145.00,258.00 145.00,258.00
             136.64,257.89 138.55,256.90 132.00,253.06 Z" />
</svg>
