<?xml version="1.0" encoding="UTF-8" standalone="no"?>
<!DOCTYPE svg PUBLIC "-//W3C//DTD SVG 20010904//EN"
              "http://www.w3.org/TR/2001/REC-SVG-20010904/DTD/svg10.dtd">

<svg xmlns="http://www.w3.org/2000/svg"
     width="7.25in" height="6.06944in"
     viewBox="0 0 522 437">
  <path id="Selection"
        fill="none" stroke="black" stroke-width="1"
        d="M 159.19,291.00
           C 159.19,291.00 143.10,249.00 143.10,249.00
             143.10,249.00 132.72,228.83 132.72,228.83
             125.55,212.00 124.61,202.69 122.83,185.00
             122.83,185.00 121.18,174.00 121.18,174.00
             121.18,174.00 122.00,164.00 122.00,164.00
             122.00,164.00 122.00,160.00 122.00,160.00
             122.00,160.00 121.18,149.00 121.18,149.00
             121.18,149.00 123.04,138.00 123.04,138.00
             123.04,138.00 123.04,130.00 123.04,130.00
             125.92,101.12 136.60,67.91 156.17,46.00
             175.84,23.98 202.35,10.94 231.00,4.96
             231.00,4.96 248.00,2.79 248.00,2.79
             248.00,2.79 254.00,1.64 254.00,1.64
             254.00,1.64 260.00,1.64 260.00,1.64
             260.00,1.64 278.00,1.00 278.00,1.00
             278.00,1.00 291.00,1.68 291.00,1.68
             299.98,1.12 296.95,2.31 304.00,2.91
             318.91,4.17 333.44,6.48 348.00,9.96
             348.00,9.96 360.00,12.55 360.00,12.55
             383.68,18.88 407.38,29.95 425.83,46.28
             433.79,53.33 444.89,65.95 449.91,75.28
             458.01,90.35 462.12,113.41 467.46,130.00
             471.60,142.84 479.31,154.25 480.64,168.00
             480.81,169.80 479.08,180.91 478.59,183.00
             477.90,185.92 476.24,187.90 476.60,191.00
             477.18,196.01 483.33,205.76 486.29,210.00
             486.29,210.00 498.49,229.00 498.49,229.00
             503.74,236.24 513.11,247.02 514.28,256.00
             515.15,262.63 510.96,270.68 505.00,273.69
             498.22,277.11 489.23,273.25 490.09,287.00
             490.09,287.00 492.64,299.00 492.64,299.00
             493.00,306.94 487.30,311.59 481.00,315.00
             481.00,315.00 481.00,314.00 481.00,314.00
             481.00,314.00 479.00,313.00 479.00,313.00
             482.81,317.75 488.47,322.04 487.26,329.00
             486.25,334.78 479.79,337.77 479.11,345.00
             478.53,351.26 482.94,358.04 483.00,370.00
             483.00,370.00 483.00,374.00 483.00,374.00
             482.93,387.89 474.31,396.66 461.00,399.55
             461.00,399.55 452.17,401.64 452.17,401.64
             441.92,403.18 419.75,405.38 411.00,409.63
             404.25,412.91 399.30,419.03 395.14,425.09
             392.78,428.53 389.68,434.08 385.98,435.98
             383.81,437.10 381.37,436.98 379.00,437.00
             379.00,437.00 215.00,437.00 215.00,437.00
             215.00,437.00 167.00,437.00 167.00,437.00
             161.59,437.00 149.49,437.78 145.00,436.00
             154.43,431.62 160.48,422.11 164.61,413.00
             166.88,408.00 170.08,397.42 171.04,392.00
             171.04,392.00 171.04,382.00 171.04,382.00
             171.04,382.00 173.37,368.00 173.37,368.00
             173.37,368.00 173.96,356.00 173.96,356.00
             173.71,349.58 173.43,343.31 172.26,337.00
             171.07,330.59 168.73,315.86 165.00,311.00
             164.46,305.01 161.09,296.88 159.19,291.00 Z
           M 188.00,258.00
           C 188.00,258.00 189.00,259.00 189.00,259.00
             189.00,259.00 189.00,258.00 189.00,258.00
             189.00,258.00 188.00,258.00 188.00,258.00 Z
           M 192.00,259.00
           C 192.00,259.00 193.00,260.00 193.00,260.00
             193.00,260.00 193.00,259.00 193.00,259.00
             193.00,259.00 192.00,259.00 192.00,259.00 Z
           M 205.00,262.00
           C 205.00,262.00 206.00,263.00 206.00,263.00
             206.00,263.00 206.00,262.00 206.00,262.00
             206.00,262.00 205.00,262.00 205.00,262.00 Z
           M 220.00,266.00
           C 220.00,266.00 221.00,267.00 221.00,267.00
             221.00,267.00 221.00,266.00 221.00,266.00
             221.00,266.00 220.00,266.00 220.00,266.00 Z
           M 310.00,349.00
           C 310.00,349.00 311.00,350.00 311.00,350.00
             311.00,350.00 311.00,349.00 311.00,349.00
             311.00,349.00 310.00,349.00 310.00,349.00 Z
           M 447.00,382.00
           C 447.00,382.00 448.00,383.00 448.00,383.00
             448.00,383.00 448.00,382.00 448.00,382.00
             448.00,382.00 447.00,382.00 447.00,382.00 Z" />
</svg>
